<svg id="Capa_1" data-name="Capa 1" xmlns="http://www.w3.org/2000/svg" viewBox="0 0 2000 2000"><title>1</title><path d="M1991,1029.4c-44.3,47.2-91.8,91.2-139.2,135.7-13.4-11.4-9.3-29.9-19.6-42.2-9.7,18.5-14.5,38.5-21.1,57.8-5.9,17.4-12.6,34.4-25.8,47.9-3.2,3.2-6.3,6.6-10.6,8.5-7.7-3.5-4.2-9.8-2.9-14.7,3.5-12.7,9.3-24.6,13.7-37s9.5-26.3,13.5-41.9c-8,4.1-13.3,8.4-17.7,13.7-14.9,17.9-32,33.6-48.5,50-6.1,6-7.7,11.5-4.1,19.4s7.7,16,9.8,24.7c1.7,6.8,3.3,13.7-.7,20.4-1.3,2-2.2,4.8-4.1,5.9-4,2.4-8.3,5.4-11-2.4-4.3-12.1-9.8-23.7-14.4-35.6-2.1-5.5-4.4-5.7-8.3-1.9-5.5,5.4-6.5,12-5.4,19.4,1.9,12.5,6.9,24,10.8,35.9,2.3,6.7,1.3,11.8-3.8,16.4-2.7,2.5-5,5.5-8,7.5-28.8,19.6-49.2,48.2-75.4,70.5-4.8,4.1-8.4,9.6-12.6,14.4-6.4,2.4-6.7-1.9-6.4-6.1s2.1-9,3.6-13.3c8-23.1,14.5-46.7,22.6-69.8a18.6,18.6,0,0,0,1.5-8.1c-9.7,4.1-16.1,11.6-23.4,17.6-5.2,4.3-10.4,8.6-15.7,12.7-2.5,2-5.9,5.6-8.7,3s1-6,2.7-8.4a104.3,104.3,0,0,1,14.2-16.8c19.3-18.7,35.4-40.5,54.9-59.1,29.7-28.2,59.6-56.1,90.2-83.3a1000.3,1000.3,0,0,0,92.2-93.1c18.8-21.7,37.3-43.6,56.9-64.6,10-10.7,9.7-12.1-1.1-21.6-29-25.7-58.1-51.4-87.7-74.8,17.4,21.7,37.3,42.7,56.6,64.1,16.9,18.7,17.7,20.7-.3,37.7-33,31.3-66,62.7-99.8,93.1-11.1,10-22.3,20.1-32.9,30.7q-139.2,138.9-278.2,278.4c-25.2,25.4-46.1,54.6-68.9,82.2s-44,56.4-68.7,82.3c-16.8,17.7-36.8,32.1-55.5,47.9-29.9,25.2-60.1,50-89.6,75.7-13.7,11.9-24.6,26.4-36.3,40.1-17.1,20-35.9,38.4-53.1,58.2A271.9,271.9,0,0,0,1056,1830c14.2-7.9,25.1-17.6,36.3-27,48.2-41.1,92.2-86.6,136.8-131.5,48.8-48.9,95.8-99.5,140.3-152.4,18.2-21.6,41.1-38.2,63.4-55.4,9.2-7.1,18.5-14,26.7-22.3,2.4-2.5,5-6.5,9.2-4.2s2.5,6.8,1.2,10.6c-11.4,28-18.7,57.3-29.4,85.5-5.2,13.6-9.2,27.8-19.2,39.6-6.7-7.5-8.7-16.6-11.7-25.1s-5.6-16.7-9.4-24.7-6.4-5.5-9.9-.3c-5.7,8.1-5.2,16.7-1.7,25.3s8.7,19.5,12.4,29.5c4.2,11.5.7,19.1-9.1,24.6-5.1,2.9-6.7,1.3-8.1-3.6-3.7-12.6-7.5-25.1-11.6-37.5-1-2.9-.9-9-4.1-7.8s-10.6,4.1-10.5,11c.1,9.4,3.1,18,6.6,26.5s7,16.3,7.2,25.4c0,3.7-.4,6.9-3.4,9.9-29.1,28-57.9,56.2-89,82-2,1.7-3.8,4-8.3,4.2,5.6-28.7,18.9-54.3,29.2-82.6-27.7,22.4-26,57.8-42.8,84.7-7.2-8.2-8.5-17.3-11.2-25.8-.5-1.8-.9-4.3-2.8-4.3s-3.7,2.2-4.3,4.3a20,20,0,0,0,1.1,13.4c3.1,7.3,5.8,14.8,9.3,21.9s1.9,13.2-3.5,19-11.8,12.4-18.6,17.6c-17.5,13.1-33.1,28-48.2,43.7s-29.1,27.1-43.3,40.8c-22.5,22-45.4,43.5-68.1,65.2a35.4,35.4,0,0,0-9.1,12.5c-8.4,2.9-10.9,2-13.5-5.9s-5.1-18.8-8.4-28-4.5-9.2-12-3.7c-6,4.5-10.7,3.6-15.8-1.9-11.1-11.9-13.8-11.1-19,4.8-2.2,6.9-3.6,14.1-6.2,21-1.9,4.8-4.1,9.8-11,8.6q-33.3-31-66.5-62.3c-2.2-2-3.7-4.7-5.5-7.2-4.8-23.8-15.4-45.6-23-68.4a43.5,43.5,0,0,1-1.8-7.1c-.4-2.5-.9-5.3,1.4-6.8s4.5.6,6.4,1.9c17.5,11.9,34.1,24.9,50.7,37.8,19.5,15.3,39.3,30.1,60.5,43.1-67.2-73.1-127.8-152.6-210.6-211.2-.1,5.1,2.6,8.1,5,11,16.3,20.2,31.2,41.5,48.7,60.7,3.1,3.5,4.6,7.2,2.8,11.7-5.4,13.7-10.4,27.5-15.8,41.1-2,5.2-5.5,9.2-11.9,5.2-11-10.2-21.7-20.6-32.9-30.6-4.2-3.6-4.9-7.3-3-12,3.9-10,8.1-19.8,11.6-29.8,1.9-5.6,5.4-15.1.4-16.5-7.1-1.9-8.1,7.8-10,13.6-2.7,8.3-4.3,17.1-10.9,24.5-6-6.9-7.9-15.2-10.3-23.1-5.1-17-8.2-34.5-14.7-50.9-4.7-11.7-10.4-22.7-21.7-31.4,7.4,33.5,25.4,62.4,30.3,96-6.3-5.1-12.8-10-18.9-15.4-24.7-21.8-48.3-44.9-71.8-68.1-6.6-6.6-7.9-13.3-4.5-21.4,4.1-10.1,9.1-20,12.8-30.2,4.8-13.3,1.9-20.9-9.9-28.4l-21.5,56.8c-13.7-8.5-15.1-12.2-10.8-26.5s11.9-26.8,13-41.7c4.9-11.4,6.9-12,17.2-4.4a412.7,412.7,0,0,1,40.6,34.2c4.7,4.4,10.1,7.9,16.6,12.5-26-36.3-53-69.9-80.6-103.2-3.2-3.7-6.3-7.5-9.2-11.4s-3.5-6.9,2.6-7.8a8.9,8.9,0,0,1,6.1,3.7c5.4,7.7,13.1,12.9,19.5,19.3,36.8,37.2,76.5,71.3,112.7,109q69.9,72.8,139.6,145.6c31.4,32.6,63.8,64.1,95.4,96.5a38,38,0,0,0,4.7,4.3c14.5,11.8,15,11.7,27.4-2.9,20.9-24.7,43.1-48.2,64.8-72.2,15.2-16.8,29.8-34.2,45.8-50,18.4-18.3,37.1-36.4,56.7-53.3,31.7-27.4,65.2-52.7,95.4-81.7s52.5-61.2,76.6-93.6a751.2,751.2,0,0,1,66.5-78.1c18.1-18.5,38.1-35.2,57.8-52.2,16.2-13.9,31.9-28.5,47.6-42.9,34.6-31.5,69-63.1,102.6-95.5,38.9-37.6,79-73.9,113.5-115.8,18.1-21.9,37.9-42.4,57-63.4,6.2-6.8,12-13.9,17.7-21,3.8-4.8,3.2-8.3-1.1-12.6-18.4-18.8-38.1-36.2-58-53.3-36.5-31.6-73.6-62.7-106.3-98.3q-61.5-66.6-120.3-135.8c-20.8-24.5-40.5-49.8-60.9-74.5-1.9-2.3-4.8-4.1-3.8-7.8,4.1-2.2,7.1.3,9.9,2.6,24.4,19.8,48.3,40.3,72.1,60.9s48.1,41.6,71.7,62.8c9.7,8.8,18.5,18.7,28.2,27.6,18.6,17,36.7,34.8,57,50-16.6-27.2-35.6-52.7-54.6-78.1s-43.8-45.1-66.5-66.8c-3.1-2.9-6.3-5.8-9.3-8.9-53-52.9-106.3-105.6-158.8-159.1-20.3-20.7-40.4-41.6-61.7-61.3-76.6-71.2-150.4-145.2-224.7-218.8-22.7-22.5-48.9-41.5-73.5-62.1-15.7-13.2-31.1-26.7-47-39.5-6.4-5.2-10.5-4.4-16.3,1.2-20.3,19.5-37.2,42-56.1,62.9-29.7,32.8-59.4,65.6-93.1,94.6-28.2,24.3-55.7,49.5-83.9,73.9-40.3,34.7-78.5,71.6-117.9,107.4q-33.7,30.8-66.7,62.8C552,577.2,510,616,470.1,656.9c-52.2,53.3-102.9,107.9-146.9,168.5-18.5,25.4-38.6,49.8-61.9,71.1-20.5,18.8-42.6,35.8-63.7,53.8-17,14.5-34.9,27.9-51.3,43.1-8,7.4-7.7,8.3,1.3,16.2,22.5,19.8,45.9,38.5,69,57.5,19.1,15.8,38.5,31.3,57.2,47.4,11.8,10.2,21,23,30.8,35.1,23.1,28.5,48.7,54.9,71.7,83.4s50.5,48.8,77.6,71.1c55.5,45.8,104.4,97.6,145.3,156.9,8.5,12.3,17.1,24.5,27.5,35.5,4.2,4.3,7.2,9.3,2.1,15.1-4.7,17.3-10.3,34.3-17.8,50.6-4.2,9-5.8,9.1-11.7.7-7.6-10.8-11.5-23.4-15.8-35.8-6.7-19.3-13.9-38.4-19.7-58s-18.2-31.2-37.1-40.1c11.4,32.2,22.3,63.2,33.8,95.8-22.9-10.4-31.5-29.4-38.3-50.7-3.4,4-4,11.4-11.4,8.5s-9.6-10.9-6.8-18.5c4.2-11.4,9.4-22.5,13.8-33.8,2.9-7.6-7.4-19.9-15.6-19.2-3.7.4-2.8,3.4-3.3,5.6-2.5,11.3-5.4,22.5-11.4,32.6-2.7,4.7-5.1,5.9-9.5,1.6-9.3-8.8-17.5-18.8-28.4-26-3.7-2.4-2-6.1-1.2-9.1,3.4-12.7,7-25.3,10.9-37.8,2-6.2,1-10.9-3.5-15.7-19.7-21.3-39.1-42.8-60-65.7,10.3,34,20.1,66.4,30.2,100-8.3-4.2-14.2-9.4-20.1-14.4-15.4-13.1-30.4-26.6-43.4-42.1-8.3-9.9-19-17.1-29.2-24.9-13-10-15.3-17-10.3-32.6,3.8-11.6,8.5-22.9,12-34.6,2.2-7.1,3-14.5-4.9-19.6-3.7-2.3-5.4-2.1-7.2,2.1-5.5,12.9-11.3,25.7-17,38.5s-6.1,12.7-16.2,2.6c-6.1-7.4-2.3-15.2-.5-22.7,2.7-11,7.8-21.2,11.6-31.8,5.8-16.3-6.5-32-23.6-29.7-6,.7-7.6-3-9-7-8.3-23-26.4-37.6-44.9-52.9-.8,4.1.9,6.8,1.8,9.5,8.9,27,18,54,26.9,81,1,2.9,2.3,5.7,2.4,8.8,0,4.9-2.1,6.9-7,4.6-13.1-8.7-22.1-20.2-26.7-35.7-6.1-20.1-13.7-39.7-20.9-59.5-1.6-4.5-3.3-9.1-8-13.1-4.3,11.5-8.9,22.3-12.4,33.4-2.2,6.9-5.3,6.4-9.5,2.5-6.8-6.6-13.2-13.6-20-20.1L9,1003.7v-1.9l35-33c3.8-3.6,7.6-7,11.6-10.4,13.1-11.2,14.7-10.8,21.9,5l30.4,67.5,2.8,5.8c7.4-9.7,7.1-12.5-2.1-19-6.7-4.7-11.1-11.1-11.2-19.1-.2-12.9-5-24.3-9.9-35.9-2.3-5.6-4.7-11.2-6.1-17.1-2.6-10.9,8.5-26.3,19.1-27.5,2.6-.3,3,1.4,3.9,2.9,2.2,3.5,4.3,7.2,6.9,11.5,5.4-6.9,8.5-14.2,9.2-22s4.1-13.9,8.9-19.6c12.6-14.9,27.4-27.7,41.1-41.5,4.9-2,5.1,1.7,5.2,4.7s-1.5,7.1-2.9,10.5c-8.9,22.1-16.6,44.7-25.6,66.8-1.2,3.1-2.6,6.2-3,10.2,9.3-4.3,14.5-12,19.7-19.8,8.8-13.3,13.7-28.6,21.3-42.6,5.2-9.6,5.4-9.8,13.9-3.8,2.9,2,5.6,5.6,9.7,2.7s6.9-7,5.8-12.6c-1.6-8.8-5.8-16.7-8.7-25.1s-7-13.9-2.7-21.9l17.5-16.2c4-3.6,6.6-2.7,9,2.1,5.4,10.7,8.3,22.3,12.1,33.5,1.9,5.4,3.4,7.7,9.2,3.7,10.1-6.9,11.1-8.3,6.9-20.1s-10.5-22.7-13.2-35.1c-.8-3.5-1.8-6.6,2-9.7,29.6-23.9,55-52.1,82.8-78,6.5-6,13.1-11.8,21.4-16.7-15.7,38.4-31.4,76.8-47.9,117,16.5-4.8,27.4-14,35.4-27s10.8-27.1,17.5-40c6.7,2.5,7.7,8.2,9.3,13.3s4,4.9,7.9,2.9c11.1-5.9,12.8-9.8,9.1-21.8-4.7-15.6-13.5-29.4-19.8-44.3-3.1-7.3-2.1-12.1,3.5-17.6,13.1-12.8,26.4-25.4,40.3-37.4,5-4.4,7.9-3.5,10.1,2,5,12.4,10.1,24.8,14.7,37.4,2,5.4,4.2,5.5,8.4,2.5,9.4-6.9,15.6-16.3,20.9-26.3,12.2-22.7,20-47.1,29.6-70.9,5.3-13.3,10.8-26.6,18.8-38.6,4.7-7.1,9.9-14,19-16.9,3.6,9.8,5.5,20.1,10.4,29.2,2.2,3.9,3.7,5.4,7.7,1.2,11.7-12.1,11.9-11.9,5.5-27-.5-1.1-.9-2.3-1.3-3.4-7.4-19.2-7.4-19.2,7.8-32.5,4.8-4.2,9.6-8.4,14.2-13,51.3-51.6,106.3-99.4,157.9-150.7,2.4-2.4,5.1-4.4,7.6-6.6,4.1-2.4,6.2-.3,7.7,3.3s3.4,9.8,5.1,14.7,4.9,6.7,9.6,3c26.4-21.5,48.9-45.7,54-81.4a25.2,25.2,0,0,1,4.3-10.9c11.2-19.5,28.4-33.3,45-47.7,3.4-3,5.2-1.3,7.2,1.5,3.6,4.7,4.7,10.5,6.7,15.9.8,2.2,0,6.5,4,5.8s4.7-3.5,5.1-6.9c.6-6.1-2.2-11.3-3.9-16.8s-5.8-8.8-2-14.5c5.5-8.3,12.1-15.3,21.3-19.5,3.3-1.5,3.4,1.9,4.1,3.5,2.5,5.5,5.2,11.1,6.9,16.9,2.4,8,5.8,6.7,11.2,2.6,24.8-18.5,45.4-40,50.5-72.1,4.6-28.8,24.3-47,44.6-64.7,2-1.7,4.5-2.8,6.8-4.2h3.7c6.6,28.6,17.2,55.9,27.6,83.2,2.8,7.6,8.8,13.1,14.5,18.7,10.5,10.4,22.2,19.2,34.2,27.6,5.9,4,9.5,5,12.1-3.5s6.7-16.3,9.8-24.6c1.7-4.3,3.1-5.6,6.7-1.7s4.8,5.7,7.9,7.7c12.8,8.1,12.7,19,7.6,31.5-2.1,5.3-3.3,11.1-5.6,16.4s1.6,6,4.3,7.5c4.5,2.4,4-2.3,4.8-4.3,2.4-5.6,4.8-11.3,6.1-17.2,1.9-8.8,6-8.2,12-4.1,13.2,9,23.2,20.7,28.6,35.9,3.3,9.5,6.9,19,8.9,28.8,5,24.6,18.8,43.2,39.5,59.4-3.9-22.2-17-40.2-21-62.9,17.6,11.1,30,25.2,41.5,40.2,1.7,2.2.8,4.6.1,7-1.1,4.1-1.5,8.5-3.3,12.3-5.9,12.5-3.3,22.2,9.7,29.6,2.5-6.7,5.4-13.6,7.5-20.7s4.2-7,9.3-3.1c7.3,5.7,14.3,11.6,20.3,18.6,50.7,58.5,109.7,109.1,161.3,166.8,6,6.8,7.5,12.2,3.8,20a98.8,98.8,0,0,0-5.2,13.7c-1.5,4.4-2.3,9.1-.6,13.5,2.3,6.1,6.9,11.3,12.9,11.7,3.7.3,3.7-6.7,5.4-10.3s2.3-6.3,3.5-9.4c4.3-12,5.1-12.3,14.9-4.2,7.2,6,12.2,13.7,16,22.1,9.3,20.6,19.3,40.9,27.1,62,5.7,15.3,15.1,26.9,28.8,38.5-5.1-23.9-18.8-43-22-66.9,6.2,2.9,10.4,7,14.7,10.9s6.7,7.1,10.5,10.3c14.1,12,21.3,25,9.3,43-4,5.9-2.7,7.7.8,15.4,5.7-6.6,8.1-14.5,11.4-21.7,2.5-5.2,4.8-6.5,9.3-2.7,16.2,13.7,29.8,29.8,44.1,45.2,3.3,3.6.8,7.3-.8,10.1-7.1,12.5-4.1,21.6,6.2,31.5,16.7,16.4,31.7,34.7,49.2,54.1-8.5-21.5-16.2-40.7-24.2-60.8,5.1,1.1,7.1,4,9.5,6.2,24.1,23.1,47.1,47.2,69.8,71.5,5.4,5.8,6.6,11.1,3.6,18s-5.2,12.3-7.5,18.6c-3.5,9.3,1,19.6,9.6,24.2,4.1,2.2,3.8-1,4.6-3.1,3.2-8.5,6.7-17,9.5-25.7,1.6-5.2,3.9-5.1,7.8-2.6,7.3,4.8,12.8,11.2,17.8,18.2,2.2,3.3,1.7,6.5.7,9.7-1.9,5.8-4.4,11.3-6.5,17.1-7.1,19.8-7.6,15.2,8.7,27.8,6-8.5,8.2-19.1,15.9-27.3,6.1,4.8,9.1,11.8,12.3,18.5,7.2,15.1,14,30.5,21.5,45.4,5.4,10.7,12.3,20.4,23.4,27.9-2.7-20.4-15.6-36.5-17.8-56.6,8,3.7,13.5,9.5,18.9,15.2,13.7,14,26.9,28.5,40.4,42.6,2.6,2.7,3.7,5.5,3,9-3.2,18.1-3.1,37.4-20,50.3-6.4,4.9-3.6,10.7,1.9,16.6l19.7-43.6c8.5-18.2,8.4-18.1,23.6-4.1,11.6,10.7,21.3,23,31.7,34.8Z" fill="#292229"/><path d="M1026.3,1950.7l-7.9,7.3h-3.7l-14.6-12.9c-2.2-10.1,2.3-18.3,7.5-26.3,2.9-4.4,6.5-4.2,9.7-.5C1025.3,1927.7,1030.9,1937.8,1026.3,1950.7Z" fill="#252425"/><path d="M203.2,818.5c-.9,9.2,3.2,17.2,6.5,25.3s5.8,14.6,7.6,22.4a8.9,8.9,0,0,1-1.2,7.6c-7.7,11.6-8.7,11.8-19.3,2.5l-4.6-4.1c-17.3,24.9-20.6,59.3-53.4,75.4L167.4,872c2-5.4,4.3-10.7,6.2-16.1,1.1-3,1.7-6.2-3.1-6.5C180,837.6,192.6,829.1,203.2,818.5Z" fill="#d39b84"/><path d="M818.2,242.2c-6,29.8-12.8,59-40,78.1-5.7,4-10.1,9.7-15.1,14.7-8.4,8.4-11.7,7.7-15.5-3.6-1.6-4.5-3.6-9.1-4.3-13.8s-3.1-3.9-5.8-4.1c21.3-23,43.5-44.9,67.9-64.5C809.1,246,813.9,244.4,818.2,242.2Z" fill="#b38a79"/><path d="M440.1,655.9c-11.8-11.4-15.4-24.9-18.2-38.7-.4-1.8-.5-3.7.9-5.2,15.2-16.7,30.5-33.1,50.5-44.9C462.7,596.5,454.8,626.7,440.1,655.9Z" fill="#252126"/><path d="M628.8,1511.6c1.5-5.8-.7-10-4.7-14.7-21-24.2-38.9-50.9-58.1-76.5-28.1-37.4-61.6-69.4-96.9-99.7-21.1-18.2-42.5-35.9-63.5-54.1s-38.3-41.2-56.7-62.4c-23-26.5-45.1-53.8-68.8-79.8-18.9-20.8-42.5-36.6-64-54.8-24.4-20.7-49.8-40.3-73.7-61.8-6.7-6-5.8-9.7.4-14.8,27.5-22.8,54.3-46.6,82.6-68.4,38.1-29.4,70.1-64.6,98.2-103.2C378.6,746,443.7,679.8,510,614.6c78.1-76.8,158.2-151.3,239.1-225,43-39.1,86.8-77.2,130.5-115.4,26.6-23.3,48.9-50.5,72.8-76.3,19.7-21.3,37.4-44.4,57.8-65.1,5.9-6,10.2-6.4,16.6-.9,52,44.4,106.8,85.5,154.8,134.7,69,70.7,141.2,138.1,212.5,206.5,44.7,43,87.5,88,131.2,132.1,38.5,38.9,78.1,76.6,117.6,114.6,33.9,32.5,59,72.1,84.3,111.4.6.9,1.6,1.9.1,4-13.3-8.3-24.9-19-36.1-29.8-63.1-61.1-129.4-118.4-196.8-174.6-2.8-2.3-5.1-5.4-9.4-5.1s-8.2-3.4-10.5-6.9c-18.9-29.1-42.6-54.3-67.9-77.8-33.3-30.9-64.3-64.3-98.2-94.6-36.2-32.4-72.2-64.9-108.8-96.6-15.2-13.2-29.4-27.6-44.9-40.5-4.5-3.7-8.8-9.1-16-5.6-6.2-.1-9.5-3-9.3-9.4-.6-1.3,3.1-1.5,1-2.7-13.5-7.8-23.1-19.8-34.3-30.1-24.5-22.5-48-46.1-71.4-69.8-4.7-4.8-8.3-4.5-13.2-.6-31.1,24.7-63.8,47.3-94.4,72.6A458.8,458.8,0,0,0,856,324.1c-3.2,3.8-4.9,8.4-7.5,12.6s-5.2,9.8-11.7,10.4c-2.5-2.1-4.4-.7-6.4,1-38.1,31.8-81.2,57.5-115.3,94.4-17.8,19.3-34.6,39.4-52.1,58.9-21.9,24.2-43.4,48.7-65,73.2-15.1,17.1-30.4,34.1-45.4,51.3-2.3,2.6-4.6,5.3-1.7,8.9.1,7.6-5.6,11.2-10.8,14.8-10.6,7.7-22,14.4-32.5,22.3-26.9,20.4-49.9,44.8-73.1,69.2-26.3,27.8-48.6,58.8-72.3,88.8-20.5,26-46.5,46.7-69.8,69.9-20.8,20.8-44.4,38.4-65.4,58.9-12.9,12.6-26.3,24.6-39.6,36.8-6.7,6.1-7.2,7.4-.2,13.3s15.3,14.1,22.9,21.2c25.2,23.3,45.7,50.8,68.3,76.5,20.9,23.7,43.8,45.2,70.5,62.4,3.6,2.3,7.7,3.5,11.6,5.4,7.1,3.5,12.5,8.5,14,16.7-1.4,1.9-6.8,1.8-2.7,6.4,25.6,29.1,47.1,61.8,73.9,89.9,24.4,25.7,53,47,79.7,70.3,12.4,10.8,25.5,20.8,37.5,32.3,4.3,4.2,8.4,10,15.9,9.3a9.8,9.8,0,0,1,8.3,6.3c6.3,15.2,17.2,25.4,32,32.2,6,2.8,11.7,7,8.4,15.5-6.2.8-3,3.2-1,5.6,18.4,22.7,37,45.2,55.2,68.1,12.8,16.2,25.8,32.4,37.9,51.7-10.9-4-17.9-10.5-24.9-16.8-11.7-10.7-23.6-21.2-36.2-30.7-10.5-8-10.6-7.9-18.4.9C640.9,1522.6,641.2,1513.6,628.8,1511.6Z" fill="#d2b5ba"/><path d="M812.9,1767.1c5.7,1,8.9-1.5,10.8-7,4.6-12.9,9.5-25.6,14.4-38.3,1.6-4.2,1.9-7.3-1.9-11.3-19.2-20.5-35-43.7-52.7-65.5-2.7-3.2-2.3-7.2-2.7-11.4,87,58.7,149.4,141.9,218.6,218.6-44.2-23.5-80.3-58.4-122.3-86,.4,9.1,3.7,16.9,6.6,24.7,6,16.2,13.9,31.7,16.4,49.1.4,2.7,1,5.4.4,8.1C870.8,1821.7,841.5,1794.7,812.9,1767.1Z" fill="#988b92"/><path d="M247.4,1231.4c6.5.1,5.6-3,4-7.6-10.9-32.3-21.5-64.8-32.3-97.2-.2-.8-.3-1.7-.7-3.4,8.3,1.1,12.8,7.4,17.9,11.8,14.8,13.2,28.9,27.2,35,47,1.1,3.6,2.1,5.2,6.2,2.7s9.9-1.1,14.4,2.2c13.7,10.4,16,18.3,10,34.3-4.8,13.1-11,25.6-12.8,39.7-.5,3.8.1,7.2.6,10.7Z" fill="#926b7d"/><path d="M1026.3,1950.7a45.6,45.6,0,0,0-9.8-30.5c-2.8-3.7-4.7-4.5-7.6.3-4.8,7.6-6.9,16.1-8.8,24.6-10.3-8.1-19-17.8-27.6-27.5,7.7-2.3,9.2-9,10.9-15.4,2.6-9.7,4.6-19.4,10.2-28,2.9-4.5,5.7-6.2,9.4-.8a38,38,0,0,0,4.3,4.7c8.7,9.6,8.7,9.6,19.4,1.9,4.9-3.6,8.5-3.7,10.4,3.4,2.8,10.5,6.5,20.7,9.3,31.2,1.7,6.7,4.7,10.3,12,8.1Z" fill="#d3babc"/><path d="M1092,155c-11.6-27.9-18.5-55.7-28.6-84.2,8.1,3.4,12.9,8.3,17.6,13.2,6.3,6.6,12.4,13.4,18.9,19.8s9.7,16,5.9,25.8S1099.5,146.7,1092,155Z" fill="#232228"/><path d="M1469.9,1447.8c0-1.8-.1-3.7-.1-5.5s-.2-3.9-2.1-4.6-2.6,1-3.6,2.1c-15.4,16.4-34.1,28.8-51.7,42.4-27.8,21.5-49.8,48.6-72.8,74.8-53.7,61.1-110.7,119.2-168.8,176.1-33.2,32.5-66.5,65-103.9,92.8-3.7,2.7-7.6,5.1-11.5,7.5a47.8,47.8,0,0,1-4.5,2.2c4-9.4,9.2-15.9,14.9-22,38.2-40.3,71.6-85.3,113.9-121.8,37.5-32.3,75.7-63.8,113.8-95.4,22.1-18.4,38.8-41.5,56.5-63.7,52.4-65.8,106.7-129.7,167.7-188,52.2-49.8,102.8-101.3,153.5-152.8,54.9-55.8,113.7-107.5,170.2-161.7,7.5-7.2,14.7-14.8,22.5-21.6,6.3-5.6,7-10,1-16.6-18.3-20.1-36.1-40.7-54-61.2a168.1,168.1,0,0,1-14.4-18.9c5.6.9,9.2,4.8,13.2,7.9,29.5,23.7,57.9,48.9,86.1,74.2,6.2,5.6,5.6,10,.7,15.2-41.4,44.1-78.3,92.4-122.8,133.7q-51.7,48.1-103.9,95.7c-32.7,30.1-60.7,64.5-90.4,97.5,19.1-8.5,30.8-27.5,52.2-36.4-6.4,19.9-12.1,37.8-17.8,55.8-4.2,13-7.8,26.2-12.4,39-2,5.4-.2,6.6,4.2,7.3-3.3,6.8-10.3,9-15.7,13.4s-8,8.1-11.9,12.3c-4.7-18-10.1-35.7-16-53.3-3.4-10.2-6.2-11.1-13.8-3-5.7,6-11,12.4-17.2,17.7s-3.9,12.1-8.4,16.8c-4-.2-8.3-.1-6.3-8.9C1499,1415,1480.1,1427.4,1469.9,1447.8Z" fill="#d3babc"/><path d="M1737.8,1271.7c1.9-15.6-4.3-29.3-10.7-42.7-4.5-9.7-4-16.6,4.6-24.5,16.3-15,32.3-30.6,46.8-47.6a68.1,68.1,0,0,1,23.6-18.4c-1.4,11.7-5.1,20.9-8.3,30.2-6.3,18.4-13.2,36.5-19.8,54.7-1.6,4.6-2.9,9.3.7,13.7-9.7,10.1-19.4,20.1-29.2,30.1C1743.4,1269.4,1741.1,1271.5,1737.8,1271.7Z" fill="#926b7d"/><path d="M1522.6,1405.7c-.8-8.6,2.4-15.2,9.4-20.4s11.6-14.9,19.6-20.2,9.3-4.9,11.5,4.5c3.8,15.9,11.6,30.7,14,47,.5,3.6.6,7.3.9,10.9-9.2,4.7-15.1,13-22.4,19.8a62.4,62.4,0,0,1-6.8,5.9c-4.6,3.3-7.6,3.2-9.8-3.3C1534,1435,1528.1,1420.4,1522.6,1405.7Z" fill="#212129"/><path d="M1504,1426.2c9.8,15.6,18.5,29.4,19.2,46.6.2,5.6-1.7,10.4-7.7,12-3.6,1-7.2,1.3-8.7-3.6a4,4,0,0,0-4.3-2.9c-2.2.3-1.5,2.9-2.1,4.4-2.9,7.4-5.1,15-8.3,22.2-5,11.1-14.1,18.1-27,24C1476.2,1493.6,1487.6,1460.2,1504,1426.2Z" fill="#252126"/><path d="M374,1191c-4.7-9.1-12.5-13.8-21.7-18.1-17.9-8.3-32.1-22-46.6-35.1-24.8-22.3-44.9-48.9-66.5-74.2-14.9-17.5-31.7-33.1-48.4-48.8-.4-.4-1-.6-1.5-1-13.4-10.8-13.2-10.7-.8-22,18.7-17.1,36.5-35.3,55.8-51.6,29-24.3,55.4-51.5,83.5-76.8,24.2-21.7,42.9-48.2,62.6-73.8a805.6,805.6,0,0,1,94.5-101.8c16.8-15.4,35.9-27.3,54.4-40.2,4.8-3.4,9.2-7.1,10.9-13,2.2-9.8,10.7-14.7,17.2-20.5,32.1-28.7,65.2-56.2,96.7-85.5,25.9-24.2,53-47.1,78.4-71.7,19.3-18.8,34.6-41.1,51.8-61.7,11.9-14.3,23.4-29,35.3-43.3,1.9-2.3,3.9-4.9,7.2-5.2,3.7-2.4,7-5.3,8.9-9.1,12.2-25.2,33.6-42.6,53.4-60.9,35.5-32.9,76.3-59.5,114.2-89.6,4.5-3.7,6.7-3,10.4.6,27.4,27.1,55,53.8,82.5,80.8,7.4,7.3,14.7,14.6,23.5,20.3,1.3.8,6.5,2.8.3,4.8-12.1-1.6-19.1-11.2-27.4-18.5-25.3-22.6-49.1-46.7-75.5-68.1-8.3-6.6-8.9-6.7-16.6,1.1-30.6,30.8-58.6,64-87,96.7-21.3,24.5-43.3,48.2-67.8,69.5-12.2,10.7-23.4,22.4-35.3,33.4-36.2,33.3-72.7,66.2-108.8,99.6-23.8,22-47.2,44.4-71.7,65.6C605.1,603,578.7,640.1,550.7,676c-21.8,27.9-42.9,56.5-68.9,80.8-8.7,8.2-17.6,16.1-26.9,23.5a42,42,0,0,1-15.5,7.8C411,794.7,391.1,812.7,377,837c-9,15.5-20.5,28.9-32.2,42.1-32.9,37-68.1,71.9-100.2,109.5-9.2,10.8-9.3,11.6-.3,22.2,2.6,3,5.5,5.7,8.3,8.5,44.9,45,90.7,89.3,134.7,135.2,47.8,49.8,94.5,100.8,144,148.9,23,22.4,47.6,43.1,70.5,65.5,26.2,25.7,49.4,54.1,72.4,82.7s45.8,58,70.6,85.5c11.8,13,26,23.2,39.8,33.9,35.2,27.4,70,55.3,103.7,84.6s67.6,63.6,99,97.8c8,8.8,17.5,16.2,26,24.5,3.8,3.7,7.8,2.6,11.5-.5,8.4-7,17-14,24.8-21.7,21.7-21.5,45.7-40.5,68-61.4s43.2-40.8,62.7-63.1c39.6-45.4,78.3-91.5,122.8-132.3,29.4-27.1,60-53,90.4-78.9s62.6-52.9,92.8-80.5l37.9-34.6c40.1-36.6,73.1-79.6,106.7-122.1,13.5-17,26.9-34,41-50.5s30.3-28.4,45.9-42.1c31.5-27.5,65.6-52.1,95.4-81.6,7.9-7.8,8-9,.2-17-31.1-31.6-63.9-61.3-96.4-91.4-22.7-21-45.6-41.6-68.5-62.3C1617.7,810,1587,782,1555.4,755c-16-13.7-31.3-28.3-46.7-42.7-28-26.3-54.4-54.4-82.5-80.8-33.7-31.7-60.7-69.4-89.9-105.1-34.3-41.9-68.1-84-105.5-123.3-29.1-30.5-57.3-61.8-86.8-92-2.2-2.3-5.4-4.3-4.6-8.3,1-6.1,4.6-3.8,7.3-2,6.9,5,14,9.8,20.1,15.7,31.5,30.3,64.7,58.5,97.3,87.4,43.2,38.3,84.8,78.1,126,118.6,19.5,19.2,39.9,37.6,58.1,58.3a320.4,320.4,0,0,1,26.1,34.1c2.8,4.4,5.9,8.4,10.7,10.8,48.3,61.6,100.2,120.1,151.6,179.1s112.9,110.9,172.1,163.4c8.9,7.9,17.1,16.6,26.2,24.4,6.5,5.6,7.1,10,1.3,16.9-20.9,25.3-43.4,49-65.1,73.5-92.9,104.8-198.1,196.9-302.2,290.1a685.8,685.8,0,0,0-100.1,111.8c-37.7,52.5-81,99.1-132,139.1-56.1,43.8-105.4,94.8-152.2,148.3-19.1,21.9-39.1,43-58.4,64.7-5.8,6.5-9.8,6.3-16.2.3-50.5-47.2-98.3-97.1-145.9-147.2-70.2-73.8-141.3-146.7-215.8-216.2-7.2-6.7-13.9-13.8-20.8-20.7,0-6.1-2.8-10.6-8.3-13-16.1-7-28.3-17.7-34.3-34.6-1.1-3.2-4.4-4-7-5.5-11.8-6.1-18.4-17.6-26.6-27.2-26.3-30.8-50.4-63.5-77.4-93.7-16-17.9-35.4-32.5-54.6-47.1-13.1-10-25.8-20.4-38.5-31C377.7,1198.5,373.6,1196.2,374,1191Z" fill="#f3f3f4"/><path d="M1139.4,302.8c69.8,73.3,140.2,146.1,201.9,226.5,67.2,87.6,147.5,162.3,229.1,235.7s164.7,146.1,242.8,223.7c12.9,12.8,13.6,10.1-.3,23.6-20.9,20.2-43.4,38.7-66.3,56.4a635.2,635.2,0,0,0-124.1,128c-51.6,70.7-115.8,129-181.7,185.8-56.2,48.4-114.1,95.1-166.9,147.5-28.5,28.3-53.8,59.4-80.1,89.6-37.2,42.7-78.9,80.9-121.7,117.9-16,13.8-30.5,29.2-47,42.5-5.1,4.1-8.4,3.8-13.2-.4-18.6-16.3-35.5-34.5-52.4-52.6-51.8-55.3-110.1-103.4-170.2-149.1-37.3-28.3-67.7-62.5-96-99.1a1195.2,1195.2,0,0,0-148.8-160.4c-45.4-40.6-86.5-85.6-128.1-130.1-53-56.8-109.9-109.7-163.6-165.9-4.8-5-9.4-10.5-14.5-15.3s-4.7-8.6-.5-13.9c16.2-19.9,34.1-38.4,51.5-57.3,23.8-25.8,48.4-50.9,70.9-78.1a124.9,124.9,0,0,0,12.4-18c15.1-26.5,35.7-46.3,66.3-53.9,6.9-1.8,12.7-5.6,18.3-10,29.5-23.7,54-52.1,76.9-82,15.7-20.4,31.9-40.3,47.1-61,25.7-35.1,59.2-62.5,90.7-91.8C744,474,818.2,409.2,888.1,339.8c34.5-34.2,63.9-73.2,97.2-108.5,8.2-8.7,16.8-17,24.6-26,5.8-6.7,10.3-7,17.2-1.2,26.3,21.6,50.3,45.5,75.6,68.2,8.6,7.7,16.7,16.1,27.3,21.3C1131.7,298.1,1133.6,302.4,1139.4,302.8Z" fill="#212129"/><path d="M836.8,346.7c-17.1,21-35.1,41.4-51.3,63.2-28,37.8-62.9,68.7-97.4,100.2C648,546.8,607,582.3,566.2,618.2c-5.7,5.1-10.7,10.9-16,16.4-4.5-.3-6.2-1.7-2.6-5.9,8.9-10,17.6-20.3,26.5-30.3l129.6-147a403.7,403.7,0,0,1,64.9-59c21-15.3,41.2-31.5,61.9-47.2C832.3,343.9,836.8,337.6,836.8,346.7Z" fill="#252126"/><path d="M374,1191c6,7.5,13.7,13.1,21,19.1,9.2,7.5,18.6,14.9,28,22.1,30.6,23.2,58.1,49.3,81.6,79.9s47.5,59.8,73.3,88c-1.2,3.6-2.9,3.9-5.8,1.2-41.5-38.4-86.8-72.4-127.5-111.6-19.6-18.9-34-42.3-51.5-63.1-7.9-9.3-15.8-18.6-23.6-28-1.6-2-5.5-3.3-3.8-6.5S371.1,1190.7,374,1191Z" fill="#251e26"/><path d="M1411,695.5c4-3.8-.7-5.3-2.2-7.1-17.7-20.2-35.7-40.2-53.4-60.4-7.8-8.8-15.2-18.1-20.9-28.6,8.4,2.8,14.3,9.1,19.8,15,29.8,32.4,66,57.2,100.3,84.1,46.2,36.4,89.8,75.2,126.1,121.9,31.3,40.1,68.8,74.4,105.8,109.2,21.4,20.1,42.8,40.2,63.2,61.3,6.1,6.5,7,10.4-.1,17.5-75.3,74.4-149.6,149.7-225.3,223.7-36.5,35.6-75.2,69-113.2,103-26.1,23.2-49.2,49.2-71.8,75.7-35.4,41.3-72.9,80.8-110.9,119.7-41.1,42.3-82.8,84.1-124,126.3-24.5,25.2-48.3,51-72.8,76.2-12.9,13.2-13.9,13.4-26.4-.5-22.6-24.9-44.3-50.5-66.7-75.6-32.1-36-65.3-71.1-101.6-103s-72.6-68.3-107.2-104.2c-52-54-105.9-105.9-159.7-158.1-44.5-43.1-85.4-90-127.5-135.5-29.8-32.2-62.5-61.1-95.4-89.9-22.4-19.5-44.7-38.9-66.1-59.4-4.4-4.3-5.1-7.9-1.3-12.5,17.9-21.8,36.3-43,57.1-62,8.5-7.7,8.7-7.6,13.8,2.6,9.2,18.3,7.2,26.9-9.4,40-7.7,6.1-15.4,11.9-21.8,19.6-4,4.9-3.4,8.6.3,12.7,10.1,11,20.4,21.9,30.5,33,34.4,38,66.3,78.5,102.9,114.5,43.9,43,89.1,84.6,133.3,127.2,23.8,22.9,46.5,46.8,69.8,70.2,33.2,33.3,66.2,66.8,99.7,99.9,36.4,35.8,73.9,70.6,109.5,107.1,47.3,48.2,93.2,97.7,139.7,146.7,1.3,1.3,2.5,2.7,3.9,3.9,8.3,7.3,9.3,7.1,16.7-1,21.4-23.1,42.7-46.3,64.2-69.3l200.3-214.5c40-43,82.7-83.3,124.9-124,34.8-33.6,68.7-68,104-101,58-54.3,116.1-108.6,173.5-163.5,10.4-10,20.2-20.5,30.6-30.4,4-3.8,3.9-6.5.4-10.7-11.5-13.7-27.1-23-38.7-36.3-36.4-41.5-80.9-74.5-119.6-113.6-7.6-7.6-14.7-15.3-19.6-25.1-5.9-12.1-16.8-15.8-33.8-13.3-7.5-26.6-28.6-42.6-47.1-60.4-9.9-9.5-19.7-19.2-30.4-27.8-5-4-9.4-8.5-15.4-11.3S1410.1,701.9,1411,695.5Z" fill="#926b7d"/><path d="M817.3,838.8c-3.7,2-5.5,5-6.6,8.6a18.3,18.3,0,0,1-6.6,9.7c-11.2,8.4-16.9,20.6-22.7,32.6-9.4,19.3-18.8,38.6-26.6,58.5-4,10.2-8.7,20.3-10.6,31.4-1,6-.7,10.5,2.5,15.3,1.8,2.7,5.1,5.2-1.4,7.8-5,2-3.8,8.9-4.2,14-.5,7.6-3.4,14-11.6,15.6s-13.4-3-16.4-10.2a394.4,394.4,0,0,1-23.7-73.8c-4.6-22-11.6-43.6-14.4-65.9-4.5-36.2-13.2-71.8-15.6-108.4-.9-12.8,1.2-24.4,2.6-36.5.8-6.4,3.5-11.8,10.6-13.3s12.4,2.2,16.2,7.7c6.9,9.9,7.7,21.5,6.4,32.7-2.2,20,1.1,39.6,3.1,59.3,2.6,24.8,5.5,49.8,10.9,74.1,3.6,16.1,4.9,32.7,10.9,49.1,5.8-5.7,6.3-13.5,7.9-20,2.7-10.1,8.8-18.4,12.3-28.1,5.4-14.8,13.5-28.8,21.2-42.8,2.4-4.3,6.7-7.5,9.3-12.2s9.3-9,7.5-16.5c11.1-6.7,9.2-21.4,18.6-29.8,4.6-4.1,4.9-13,6.7-19.9s.5-11.2,4.2-16.5-3.8-6.9-3.7-12c8.2-1.5,17.8-2.7,25.2.1s10.9,11,13.9,18.4a16.3,16.3,0,0,1,.7,7.3c-2.6,22,3,42.9,7.9,64,5.7,24.8,9.5,49.9,14.7,74.8,2.7,12.6,8.8,24.3,10.9,37.6,3.9-2.3,7.3-5,7.6-8.4,1.1-12.4,10.1-22.1,10.8-34.5.1-.9.1-2.1.6-2.6,19.9-19.7,23.8-46.9,33.7-71.3,4.5-10.9,10.5-21.3,12.4-33.2s1.2-22.1,3.4-32.7-2-19.2,1.6-28.5c.4-1.1,1.2-2.8.7-3.5-7.3-11.3,3.6-14.7,9-20s12.8-3,19.1,3.4c12.1,12.2,8.8,26.8,6.7,40.7A373.1,373.1,0,0,1,965.9,829c-1.7,4.7-3.4,9.2-5.5,13.6-9.1,18.9-15.4,38.9-22,58.7-1.8,5.4-6.3,7.8-8.2,12.7-8.9,23.2-19.3,45.9-27,69.5a73.8,73.8,0,0,0-2.4,36c1.7,9.6-7.5,19.1-17.8,20.4-6.8.9-14.5-6-16.3-15.3a162.7,162.7,0,0,0-9.2-31.5,22.8,22.8,0,0,1-1.5-4.4c-6.2-28.6-16.6-56.1-24-84.5C826.5,882.9,822.3,861.1,817.3,838.8Z" fill="#dbbdbf"/><path d="M1411,695.5c2.8,5.7,6.6,9.7,12.9,12.1,8.9,3.5,14.6,11.8,21.5,18.1,19.7,17.7,39.7,35.2,56.4,55.8,6,7.4,11.9,14.9,10.1,25.5-15.9,4.4-26.6-.3-37.8-13.6-39.1-46.1-84.5-85.7-132.8-121.9-60.7-45.5-112.9-100-165.7-154-45.8-46.7-90.5-94.5-137.3-140.2-5.3-5.1-11.1-9.6-16.3-14.8s-7.4-4.2-12.1,0c-46.9,42.1-92.9,85-137.8,129.2s-89.6,92-136.3,136.1C696.7,664.7,655.6,699.5,617,737l-71.2,68.8c-1.6,1.5-3,3.1-4.7,4.5s-6.1,4.5-8.8,1.4-1.1-6.5,1.4-9.1c29.5-31.8,55.6-66.9,88.1-95.8s69-59.4,104.2-88.3c23.9-19.6,41.9-44.3,61.7-67.5,21.5-25,42.2-50.7,63.3-76.1,3.3-3.9,7.2-7.4,10.9-11.1,14.8-16.4,30.4-32,48.2-45.3,31.6-32.5,65.4-62.4,99.8-91.7,6.2-5.2,9.7-4.6,15.4,1.1q136.8,138.2,274.2,275.6c23.8,23.7,51.5,43,77.4,64.4C1388.2,677.2,1399.7,686.3,1411,695.5Z" fill="#d39b83"/><path d="M910.1,418.5c-9.4,11.7-21.7,20.5-32.2,31.1-5.1,5.1-8.4,12.1-16,14.2-4.3-6.3-6.8-.3-9,1.7-15.4,13.9-30.4,28.3-45.9,42.1C768.5,542,729.6,576,693.9,613.3c-26.2,27.4-52.4,54.6-78.5,82.1s-54,46.7-81.3,69.6c-25.1,20.9-50.6,41.2-75.9,62-7.7,6.3-17.3,8.9-26.1,12.7a33.6,33.6,0,0,0-16.5,14.8c-11.1,19.3-20.7,39.5-33.4,57.9A129.2,129.2,0,0,1,371,926.8c-2.8,3-6.3,7-10.9,4.1s-2.6-7.1-1.7-10.9c4.5-17.6,12.3-33.8,21.3-49.4,7.7-13.2,15.9-26,23.8-39.1,2.9-4.8,6.6-9,11.9-11C443,810,462.7,788.8,485,770.7c58.1-47.2,111.2-100.1,165.6-151.4,28.1-26.4,55.9-53,83.7-79.6s58.9-54.4,86.6-83.3c50.1-52.2,99-105.7,149.9-157.1,13.5-13.7,27.4-26.9,40.9-40.5,4.4-4.5,7.4-4.7,11.9.2,27.3,29.3,54,59,79.4,89.9,7.8,9.5,16.5,18.4,23.2,30.9-9.4-4.1-15.5-9.9-21.5-15.8-22.8-22.5-45.4-45.3-68.1-67.9-18.3-18.3-18.9-18.6-35.3.8-32.2,37.9-64,76.2-95.9,114.3-1.9,2.2-3.3,4.4-2.8,7.9Z" fill="#926b7c"/><path d="M777.8,1438.2c21.9,16.3,40,33.2,57.3,50.8,43.8,44.7,94.1,81.7,141.5,122.1,11.4,9.7,23.7,18.5,34.4,28.9,6.5,6.2,10.6,4.4,16.1-.4,24.6-21.1,49.3-42,74-63,12.1-10.3,24.1-20.8,36.3-30.9,29.4-24.4,52.6-54.6,76.9-83.5,41.6-49.3,86.7-94.4,137.5-134.1a661.1,661.1,0,0,0,116-116.8c24.1-31.2,48.4-62.5,76.4-90.2s55.6-50.6,83.5-75.8c15-13.5,29.8-27.2,45-40.5,4-3.6,3.9-6.3.3-9.7-12-11.2-10.5-12.9-2.2-27.4,2.7-4.6,5.1-5.5,9.2-2.1a220.8,220.8,0,0,1,29.8,29.8c4,5.1,1.3,8.4-1.9,11.9-12.1,13.5-26.4,24.6-39.4,37-69.9,66.3-140.7,131.6-207.3,201.3-45.9,48.1-96.8,90.7-145.1,136.1-61,57.5-121,115.9-179.1,176.4q-54,56.1-108.5,111.9c-11.6,11.8-9.1,10.9-21.2,1.5-34.8-26.9-66.6-57.5-100.3-85.8-37.4-31.5-68.6-68.7-99.6-106.1-5.7-6.8-11.8-13.2-17.6-19.9S780.2,1448,777.8,1438.2Z" fill="#c89987"/><path d="M1249.7,696.9c2.3,13.3,9.3,15.4,18.8,15,7.3-.3,13.1,5,18.7,9,26.9,18.7,42.8,43.7,41.8,77.4-.3,12.1,1.1,24.4-6,35.6s-19.7,11.7-26.5,1.1c-4.7-7.1-5.8-15.4-6.1-23.6-.4-11.3-.4-22.6-.3-33.9.1-7.1-3.3-12.2-8.6-16.3-2.8-2.2-5.8-4.3-8.9-6.5-2.2,2.5-.1,5.8-1.5,8.5-2.9.3-3.8-2.4-5.4-3.9-9.6-9.4-17.6-7.7-24.7,3.3-10.8,16.8-18.3,35.1-24.7,53.6-5.2,14.7-9.9,30-10.9,46-.5,8.4-4.2,16.6,0,24.9-10.7,8.1-2.9,19.9-5.8,29.5-2,6.6-.1,12.9,2.5,18.7,3.6,8.1,4,16.7,5.7,25.2,1.2,6.3,3.6,13.4,10.2,16.2,4.8,2,5.8,7.6,11.6,9,10.8,2.7,21.6,2.6,32.5,2.7,12.4.1,21.8-7.5,31.2-13.6,22.9-14.8,39.4-35.7,52.5-59.3a24.7,24.7,0,0,1,4.9-6.6c16.2-14.3,9.3-14.1,23.9.8,3.8,3.9,4.4,6.9-.3,10.3-1.2.8-3,2.1-3.1,3.2-1.9,23.5-24.4,35.1-31.8,55.4-11.5,4.4-16.2,16.8-26.3,22.7-7.8,4.5-13.7,12.6-24,12.4-1.1-.1-2.5,1.6-3.5,2.8-12.8,15.7-30.5,11-46.8,10.4-3.2-.2-6.9.1-10.1-.2-15.4-1.3-22.7-13.4-32.9-22-14.8-12.5-16.3-30.9-22.6-47.2-3.8-9.9-5.6-20.1-4.5-30.6s-2-22-.3-33.6c3.6-24,8.3-47.8,13.9-71.4,2.1-8.6,3.1-17.4,8-25.1.3-.5.7-1.4.5-1.7-6.1-9.2.4-13.8,6.4-19.2s5.7-15,8.8-22.4c5.6-13.6,15.8-22.8,25-32.7C1237.2,714.1,1243.9,708.2,1249.7,696.9Z" fill="#dbbdbf"/><path d="M363.1,1012.2c15-3.4,27.4-.6,39.8,12,93.9,95.4,187.1,191.5,275.4,292.2,18,20.5,35.5,41.3,51,63.7,4.5,6.4,9.3,12.8,11.4,22.1-6.9-2.7-11.1-7.4-15.5-11.5-33.2-30.9-64-64-95.4-96.5-55.5-57.4-109.3-116.2-165-173.4-27.6-28.3-53.7-58.1-81.5-86.3C376.3,1027.3,369.8,1019.6,363.1,1012.2Z" fill="#c89987"/><path d="M1093.5,790.6c1.5-4.8-.9-8.8-2.1-13.2s-5.4-9.3,1.4-14.9c3.3-2.6,7.7-11.1,3.6-16.6-6-7.8.5-13.8,2.9-18.3,4.9-9.8,17.2-12.6,25.4-8.7s11.5,13.2,9.9,25.6c-1.2,8.6-2.2,17.4-1.6,26.3,1,17-3.2,33.6-5.2,50.4-1.5,11.4-3.7,23.3.6,34.9,1.1,2.7,3.4,6.4-2.6,7.2-1.3.2-1.6,2.6-1,4,2.2,5.1-.9,12.6,1,14.8,8,9.7-1.5,16.3-2.1,24.3-.6,9.9,1.1,19.8-.5,29.8-2.3,14.3,3.4,28.4.3,43-1.1,5.6,3.7,12.5,6.2,18.6s-1.3,27.6-6.9,32.3c-1.5,1.3-2.7.8-4.1.1-5.8-2.9-11.3-6.1-13-13.2-.8-3.5-1.4-7.3-5.9-8.5-.8-.2-2.1-1.2-2.1-1.5,2.2-9.6-2.9-17.9-4.1-26.8s.5-19.1-1.9-28.5c-.7-3-1.3-5.7.1-8.8,2.1-5.1.9-10.2-1.7-14.7-1.2-2.2-2.8-4.1-1.2-6.7,4.7-7.5,3.1-15.9,3.3-24.1q1-46.6,2.5-93.3C1094.8,799.5,1092.1,795.2,1093.5,790.6Z" fill="#dbbdbf"/><path d="M1007.4,999.5c.6-3.1,1.5-5.5,0-7.8-6.2-9.4-2.5-20.5-4.9-30.2-3-11.9,4.3-24.8-4.1-35.9a2.9,2.9,0,0,1-.2-2.6c8.1-24,2.9-49,5.4-73.5,2.1-20.8.5-41.9,0-62.9-.2-5.3-2.7-10.5-4.1-15.7-.9-2.9-.8-4.4,2.1-7.2s8.3-12.1,4.7-17c-5.7-8,.8-13.1,2.3-18.7s15.8-12.2,22.7-10.4,15.5,9.9,14,19.2c-2.7,16.9-1.5,33.8-3.2,50.7-1.9,19.2-4.7,38.3-6.7,57.5-.3,2.8,1.6,5.8,2.2,8.8s4.6,7.8-2.3,9.9c-1.4.4-1.2,2.8-.5,4.1,2.2,4.8-1,11.8.7,14,10.3,12.5-5.5,22.1-2.6,34.4s-1.4,25.5.3,37.9c2.1,15.3-3.1,31.8,7.8,45.9,3.1,4-4.1,26.3-8.4,30-1.4,1.2-2.5,1.1-4,.3-5.4-2.9-10.9-5.7-12.8-12.3-1.1-4.1-2-8-6.8-10S1008.4,1001.9,1007.4,999.5Z" fill="#dbbdbf"/><path d="M813.3,1306.7c7.6-.3,12.3,2.9,16,8.3l14.3,20.1c2.1,3,4.3,5.8,9.5,6.1-5.5-10-11.4-19.1-14.9-29.4-.7-1.9-2.5-4.1-1-5.9s4.4.3,6.7.5c4.6.5,6.3,4.5,8.3,7.9,5.2,8.9,7.2,21.8,15.9,25.9s20.3,1.2,30.7,1.2c82,.6,163.9,1,245.9,1.9,8.6.1,9.7-2.5,7.3-9.6s-4.5-11.2-4.7-18.6l73.7,34.8c-23.8,15.2-47.8,26.2-74.5,36,2.6-9.6,4.6-17.8,7-25.8,1.3-4.4.2-6.4-4.5-5.9h-3.7l-262.4-1.4c-16.5-.1-16.4,0-22.7,14.9-3.4,7.9-5.7,16.3-12.2,22.4-2.3,2.2-4.7,6.2-8.3,4.1s-1.8-6.3-.7-9.2c3.1-8.8,6.9-17.3,11.2-27.6-14.9,9.2-16.5,27.6-33.3,36.5,4.5-13.2,8.2-24,12.2-36.1-9.2,4.4-12.2,12.6-16.4,19.6s-7.2,12.2-14.3,14.8c-2.5.9-5.7,2.2-7.8,0s-.2-4.8.6-6.9a32.8,32.8,0,0,1,5-8.7c8.5-9.7,8.3-22.7,12.7-33.9,1.3-3.1-1.6-6.3-3.4-9.1l-15.8-26.1c8.8.4,13.7,4.6,17.6,10.1s7.4,11.2,11.3,16.7,8.6,8.3,16.2,9.1C828.7,1330.1,817.6,1320.9,813.3,1306.7Z" fill="#b89487"/><path d="M844.4,1272.1l79.8-31.1c.4,6.4-2.5,11.5-4.7,16.4-3.1,7-2.3,9.4,6.1,9.3,33.3-.1,66.6.5,99.9.7,55.1.2,110.1,0,165.1.8,13.3.2,21.2-5,27.1-15.9,4.3-7.9,8-16.5,18.6-21.2-5,13.2-15.2,21.9-19.6,34.5,7.8.2,12.1-5,16.1-9.9s6.3-9.8,9.8-14.4,9.2-10.5,18.1-9.9c-4.6,12.7-14.3,22.4-16.7,35.6,8.3-2.2,10.7-4.3,14.3-12.2s6.3-13.8,9.7-20.6c.8-1.6,1.3-4.9,4.3-3.3s1.7,3.9.8,5.8c-3.5,7.1-6.9,14.3-10.9,21.1-2.6,4.4-2.5,7,2.6,8.8s6.9,5,2.4,9.4-2.7,6.5,0,10.3a103.3,103.3,0,0,1,14,25.7c.5,1.5,2.4,3.5.5,4.8s-3.5.6-5.2.2a15.7,15.7,0,0,1-10.8-9.1c-3.4-7.2-6.7-14.4-10.1-21.5-5.4-11.3-5.4-11.3-18.5-5.8,7.4,11.4,17.7,20.9,22.9,35.4-8.2-1.5-12.5-5.8-16.2-10.9s-8.2-12.2-12.8-17.9c-2.8-3.5-6.3-6.7-12.5-6.2,5.8,9,11.5,17.4,16.5,26.1,1.8,3,6.5,7.7,1.9,9.9s-11.6,2.6-14.9-4.5-7.2-14.8-10.3-22.4-9.5-11-17.9-11.2c-26.3-.4-52.6-1.6-78.8-1.7-63-.2-126,.2-189-.1-8.5,0-10,2.1-6.7,9.6,2.1,4.9,3.5,10.2,5.8,17A471.9,471.9,0,0,1,844.4,1272.1Z" fill="#cab4b9"/><path d="M921.4,1165.2c3.1,9.1,2.8,16.5-4,21.9s-16.7,2-21.4-4.5a143.3,143.3,0,0,1-15.1-26c-1.1-2.4-1.9-5-5.2-6.6-2.4,8.6-1.2,16.7-.9,24.8a74.9,74.9,0,0,1-.3,8.2c-.2,2.7-.4,6.2-4.1,5.9s-2.2-4.1-2.5-6.4c-3-19.4.9-39-.7-58.4-.2-2.5.6-4-3.3-5.5-6.3-2.5-5.1-10.1.3-14.5,11.2-9.1,22.4-.9,33.2.1,6.5.6,12.1,7.5,13.9,15.5s.1,14.4-5.8,18.9-8.1,9.3-14.9,9.7c-1.8,0-3.3,1.2-2.2,2.8,5.4,7.9,4.9,19.6,17,23.4S916.3,1178.8,921.4,1165.2Z" fill="#dabcbe"/><path d="M1031.4,1124.6a49,49,0,0,0-3.8-6.2c-1.9-2.5-2.2-7.6-6.5-6.4a15.7,15.7,0,0,0-10.2,9.9c-1.3,3.7,1.1,6.5,4,8.4,6.2,4,12.4,7.9,18.8,11.4,8.9,4.8,14.5,11.8,15.6,22s-5.5,16.6-12.6,21.9c-9.2,6.9-33,3.8-40.2-4-4.7-5.2-4.6-10.9-4.1-17.1.3-4.6,3.9-6.1,6.7-5.5s3.1,4.3,1.4,7.3c-3.2,5.7-.4,7.5,5,9.6,9.1,3.4,17.6,2.8,26.3-.8,4.7-1.9,8.9-4.8,9.9-9.9s-3.4-7.9-6.7-10.1c-7.4-5-16.1-7.6-23-13.8s-11.6-16.9-7.4-25.6,3.7-11.6-5.6-14.3c12.4,4.3,21.8-2.5,32.2-5.7,4-1.2,8.8,3.6,12,7.2a8,8,0,0,1,1,10.2c-1.1,1.5-2.4,2.7-4.6,2.2-8-1.8-8.1-1.6-6.3,7.5C1033.9,1124.7,1033.1,1125.1,1031.4,1124.6Z" fill="#dabcbe"/><path d="M1272.8,1101.2c12.1,5.5,21.3-2.4,31.4-4.9,5.8-1.4,9.2,3.4,12.8,6.6s3.3,6.5,1.2,10.1-11.5.9-16.5-3.1c3.8,8.4,7,15.7,10.2,23l-1.2.6c-3.2-5.3-6.3-10.7-9.6-15.9-1.6-2.3-2.1-6.8-6.1-5.6a16.7,16.7,0,0,0-9.9,8.9c-2,3.8.1,6.8,2.9,8.7,6,4.2,12,8.5,18.6,11.7,19.1,9.2,22.4,28.9,6,42.3-8.6,7.2-35.5,9.9-43.9-3.9-3.4-5.4-3.3-11.1-2.1-16.8.7-3.4,4.2-4.7,7.1-3.7s2.5,4,1.2,6.3c-4.1,6.8-.4,8.3,5.5,10.7,9.7,3.8,18.4,1.8,27-1.8,10.2-4.3,11-12.2,2.1-18.8-7.4-5.4-16.5-8-23.6-14.3s-11.6-16.9-7.4-25.4S1282.2,1104,1272.8,1101.2Z" fill="#dabcbe"/><path d="M1096.9,1085.1c8.6,16,8.6,32.7,11.1,48.7.9,5.4,1,8.9,7.7,7.2,1.6-.4,4.6-.7,5.2,2.2a4.7,4.7,0,0,1-3.7,5.6c-7.4,1.9-7.4,6.4-5.8,12.7,2.2,8.5,3.3,17.3,7.4,25.3,1.6,3.1,2.5,7.1-1.3,8.7s-5.2-2.9-6.3-5c-4.6-9.3-6.9-19.6-8-29.8-.7-6-3.7-6-7.1-5.3-9,2-19.3,2-20.8,15.2-.6,5.2-3.6,10.3-5.8,15.3-.9,1.9-1.8,5-5.1,4.1s-3.3-4-2.6-6.7c2.1-7.5,7.4-13.6,9.2-21.3,5.2-22.6,17.1-43,21.2-66C1092.8,1092.5,1095,1089.4,1096.9,1085.1Z" fill="#dabcbe"/><path d="M832.6,1172c-7,4.2-12.2,7.8-18,10.5-8.8,3.9-13.8-.7-19.8-5.9-8.8-7.7-4.8-17.2-3.6-25.6,1.7-10.7,5.9-21,8.9-31.3,2.3-1.3-.1,8,4,1.5a71.6,71.6,0,0,1,23.1-22.4c2.6-1.7,4.9-2,7.3.1s5.4,4.4,5.3,8-1.7,5.9-4.1,5.4c-15.4-3-20.5,9.5-27.2,18.4s-11.3,20.6-9.1,33.3c1.4,8.2,7.4,8.9,12.8,7.8a44.4,44.4,0,0,0,17.4-8c3.3-2.6,3.7-5.7,3.8-9.6s-2.6-8.3,4.2-7.5c4.7.6,7.1,4.3,6.2,8.5-3,13.8-2.5,27.7-2.5,41.5,0,4.9.3,9.7.4,14.6.1,2.8,2.2,7.2-1.9,7.8s-4.2-4.2-4.9-7.4a92.3,92.3,0,0,1-2.3-27.2C832.8,1180.9,832.6,1177.3,832.6,1172Z" fill="#dabcbe"/><path d="M762.2,1085.7c.6,5.1,2.4,8.2,7.5,8.9,2.8.4,5.1,2.4,4.5,5.9s-2.8,3.4-6.1,3.3c-6.2-.3-11.9,3.4-18.6,3.2-2.8-.1-6.6,2.9-6.5,7.5,0,1.8-.3,3.6-.4,5.5-.6,12.3-.6,12.2,11.6,10.9a115.7,115.7,0,0,1,14.4-.7c1.8.1,5.3-2.3,5.6,2.1.2,2.7-.8,4.8-3.7,5.6-7.2,1.8-13.8,6-21.7,5.3-5.8-.5-8.1,2.1-7.4,8.2s.9,14.6,3.2,21.7c1.8,5.5,5.1,5.8,8.8,2.4s8.9-9.1,10.2-15.7c.6-2.9,1.6-5.8,5.1-4.8s3.4,4,2.1,6.8c-4.9,10.5-8.1,22-20.1,27.5-4,1.9-6,.3-8.4-2.2s-5.7-8.6-6.6-13.8a198.1,198.1,0,0,1-1.9-51.6c.4-4.1.7-7.8-1.7-12.1s4-10.8,9.3-13.6C748.2,1092.4,760,1099.2,762.2,1085.7Z" fill="#dabcbe"/><path d="M968,1085.7c.6,4.7,1.7,8,6.8,8.7,3.1.5,5.9,2.6,4.9,6.5s-3.6,2.6-6.4,2.9c-6.1.8-12.1,2.7-18.5,3.3-4,.4-6.9,4.5-6.4,9.6a25.4,25.4,0,0,1-.3,7.3c-1.7,7.9,1.5,9,8.5,7.5s12-1.2,18-1.3c1.7,0,4.6-1.9,5.1,1.6s-.2,5.1-3.1,5.9c-7.2,1.9-13.8,6.3-21.7,5.5s-8.6,2.1-7.9,8.6.7,13.5,2.8,19.9,6.3,8.1,10.9,2.4,8.4-8.9,8.9-15.5a3.7,3.7,0,0,1,4.3-3.7c2.1.3,3,2,3.2,3.9.9,7.6-14.3,28.1-21.2,30.7-4,1.5-5.5-.1-7.7-2.1-4.2-4-6.1-9-7-14.6-3.1-17.4-3.1-34.9-1.7-52.4.3-3.7.3-6.7-1.7-10.3-3-5.7,3.7-11.5,8.7-14.2C953.6,1092.2,965.6,1099.2,968,1085.7Z" fill="#dabcbe"/><path d="M1147,1194.4c-5.4-3.8-2.2-11.3-8.7-13.1-.4-.1-.6-3-.1-4.3,7.5-19.6,4.2-39.8,3.6-59.9-.1-2,.5-4.6-2.8-4.7-6.4-.3-5.3-5.4-4.7-8.8s4.6-5.8,9.1-5.7c10.2.4,16,7.7,22.2,14.1a66.1,66.1,0,0,1,17.2,34.6c2.5,14.1-2.8,25.6-16.3,29.5C1156.8,1179,1149.5,1183.2,1147,1194.4Z" fill="#dabcbe"/><path d="M1253.2,1142c-1.1,17.3-9.3,32.6-25.1,43.8-10.3,7.2-24.1,2.3-25.9-10.2-3.6-24.3,1.5-47.7,10.4-70.3,1.5-3.8,5.6-7.8,10.1-6.3s10-7.4,14.9,2c2.2,4.4,7.6,7.9,9.8,13.3S1253.4,1134.4,1253.2,1142Z" fill="#dabcbe"/><path d="M1031.4,1124.6l1.9-1.8,7.5,14.4c.5,1,1.5,2,.2,3.6C1037.3,1135.6,1033.7,1130.5,1031.4,1124.6Z" fill="#8c7a7f"/><path d="M823.6,781.7c0,6.4.2,10.6-.1,14.7-.1,1.9-1.7,3.5-3.7,2.8s-1.5-2.4-1-3.9C820.1,791.4,821.5,787.6,823.6,781.7Z" fill="#a07a89"/><path d="M880.7,1129c-2.6,2.4-1.6,5.4-5.5,6v-18c0-2.2,1.3-3.3,3.1-4,6.6-2.9,20.5,2,24.4,8.4,2.4,4,2.4,7.4-1.9,10.1s-5.5,3.8-8.6,5.1C885.7,1139.2,879.5,1140.6,880.7,1129Z" fill="#24232b"/><path d="M1097,1115.8c1,6.9,2,13.7,3.1,20.6.4,2.3,1.8,5.1-1.4,6.2s-7.2,2.1-10.6.5-.2-4.3.2-6.3C1089.7,1129.3,1094.6,1123,1097,1115.8Z" fill="#2a2931"/><path d="M1150.4,1142.4c0-6.4-.1-12.7.1-19.1.1-4.5-.9-9.4,6.7-4.1,12.1,8.6,16.6,20.9,18.7,34.3,1,6.5-18,18.5-24.1,16.2-2.3-.9-1.5-3-1.5-4.6-.1-7.5,0-15.1,0-22.7Z" fill="#212129"/><path d="M1245.9,1139.2c-1.6,15.2-8.7,27.3-21.1,36-8,5.6-15.2,2.4-15.9-7.2-1.3-17.8,1.6-35.9,10.7-50.9,7-11.3,14.7-10.9,21,1C1243.9,1124.5,1246.5,1131.5,1245.9,1139.2Z" fill="#212129"/></svg>